<svg width="120" height="120" viewBox="0 0 120 120" fill="none" xmlns="http://www.w3.org/2000/svg">
    <path d="M6 40.1942C14.084 34.5952 33.4698 37.0983 44.2091 42.01C52.1926 45.6617 58.054 51.8587 60.9666 58.819C61.0639 59.0424 61.1563 59.267 61.2434 59.4927C62.005 61.4528 62.5352 63.4669 62.812 65.4956C62.8446 65.738 62.8755 65.9815 62.9016 66.2231C54.8162 71.8202 43.0997 72.8254 32.3604 67.9137C26.3868 65.1787 19.2269 59.9355 13.8684 54.1358C9.59393 49.5083 6.4685 44.5311 6 40.1942Z" fill="#8CC275"/>
    
    <mask id="mask0" mask-type="alpha" maskUnits="userSpaceOnUse" x="6" y="37" width="57" height="35">
    <path d="M6 40.1942C14.084 34.5952 33.4698 37.0983 44.2091 42.01C52.1926 45.6617 58.054 51.8587 60.9666 58.819C61.0639 59.0424 61.1563 59.267 61.2434 59.4927C62.005 61.4528 62.5352 63.4669 62.812 65.4956C62.8446 65.738 62.8755 65.9815 62.9016 66.2231C54.8162 71.8202 43.0997 72.8254 32.3604 67.9137C26.3868 65.1787 19.2269 59.9355 13.8684 54.1358C9.59393 49.5083 6.4685 44.5311 6 40.1942Z" fill="#8CC275"/>
    </mask>

    <g mask="url(#mask0)">
    <path d="M3.32301 34.6245C10.5279 28.4158 29.4166 28.8703 40.2369 32.5173C48.2807 35.2289 54.5419 40.6063 58.0457 47.0164C58.1617 47.2218 58.2733 47.4288 58.3798 47.6374C59.3102 49.4485 60.0236 51.3349 60.4948 53.2611C60.5506 53.4912 60.605 53.7226 60.6545 53.9527C53.4481 60.1598 42.2867 62.3105 31.4663 58.6634C25.4473 56.632 18.0343 52.3044 12.2967 47.2589C7.71972 43.2332 4.21194 38.7545 3.32301 34.6245Z" fill="#98DB7C"/>
    </g>

    <path d="M29.4786 15.6332C39.3121 15.5933 53.8767 28.6296 59.9499 38.7574C64.4645 46.2867 65.7889 54.7132 64.2503 62.0998C64.204 62.339 64.1531 62.5764 64.0972 62.8118C63.6156 64.8589 62.9127 66.8193 61.9925 68.6485C61.8822 68.8667 61.7699 69.0849 61.6546 69.2989C51.821 69.3366 41.5931 63.5334 35.5199 53.4056C32.1434 47.7696 29.2086 39.3945 28.0739 31.5803C27.1694 25.346 27.41 19.4737 29.4786 15.6332Z" fill="#8CC275"/>
    
    <mask id="mask1" mask-type="alpha" maskUnits="userSpaceOnUse" x="27" y="15" width="38" height="55">
    <path d="M29.4786 15.6332C39.3121 15.5933 53.8767 28.6296 59.9499 38.7574C64.4645 46.2867 65.7889 54.7132 64.2503 62.0998C64.204 62.339 64.1531 62.5764 64.0972 62.8118C63.6156 64.8589 62.9127 66.8193 61.9925 68.6485C61.8822 68.8667 61.7699 69.0849 61.6546 69.2989C51.821 69.3366 41.5931 63.5334 35.5199 53.4056C32.1434 47.7696 29.2086 39.3945 28.0739 31.5803C27.1694 25.346 27.41 19.4737 29.4786 15.6332Z" fill="#8CC275"/>
    </mask>

    <g mask="url(#mask1)">
    <path d="M30.4242 9.52644C39.8782 8.48621 55.1925 19.5523 62.0484 28.6835C67.1448 35.4718 69.2627 43.4489 68.5228 50.7166C68.5023 50.9516 68.4771 51.1853 68.4468 51.4176C68.1887 53.4373 67.709 55.3962 67.0072 57.2508C66.923 57.4721 66.8368 57.6937 66.7474 57.9114C57.2931 58.9494 46.8745 54.4048 40.0186 45.2736C36.2065 40.192 32.5448 32.4284 30.6707 25.0215C29.1761 19.1119 28.8194 13.4343 30.4242 9.52644Z" fill="#98DB7C"/>
    </g>

    <path d="M90.2523 53.1825C90.2523 61.9529 84.5117 69.379 76.5851 71.9133C74.6961 72.5192 72.6819 72.8455 70.5918 72.8455C59.7311 72.8455 50.9287 64.0431 50.9287 53.1825C50.9287 42.3243 59.7311 33.5219 70.5918 33.5219C72.6819 33.5219 74.6961 33.8482 76.5851 34.4541C84.5117 36.9884 90.2523 44.4144 90.2523 53.1825Z" fill="#634A84"/>
    <path d="M90.2524 53.1825C90.2524 61.953 84.5117 69.379 76.5852 71.9133C68.6586 69.379 62.918 61.953 62.918 53.1825C62.918 44.4144 68.6586 36.9884 76.5852 34.4541C84.5117 36.9884 90.2524 44.4144 90.2524 53.1825Z" fill="#6F5690"/>
    <path d="M79.3941 44.1751C79.3941 44.1751 79.7278 47.5797 81.1459 48.9926C82.3392 50.1815 85.0875 50.7445 85.0875 50.7445C85.0875 50.7445 82.6975 51.7667 81.5839 52.9342C80.2641 54.318 79.3941 57.3138 79.3941 57.3138C79.3941 57.3138 78.5241 54.318 77.2043 52.9342C76.0907 51.7667 73.7007 50.7445 73.7007 50.7445C73.7007 50.7445 76.0862 50.0366 77.2043 48.9926C78.7149 47.5823 79.3941 44.1751 79.3941 44.1751Z" fill="#1E1915"/>
    <path d="M113.145 65.6189C113.145 74.1833 107.672 81.4646 100.035 84.1608C99.8511 84.227 99.6646 84.2908 99.4782 84.3497C97.5892 84.9556 95.575 85.2819 93.4848 85.2819C82.7517 85.2819 74.0303 76.6856 73.8267 66.0016C73.8218 65.874 73.8218 65.7464 73.8218 65.6189C73.8218 54.7607 82.6241 45.9583 93.4848 45.9583C95.575 45.9583 97.5892 46.2846 99.4782 46.8905C107.405 49.425 113.145 56.8511 113.145 65.6189Z" fill="#634A84"/>
    <path d="M113.145 65.6184C113.145 74.3889 107.404 81.8149 99.4778 84.3492C91.5512 81.8149 85.8105 74.3889 85.8105 65.6184C85.8105 56.8504 91.5512 49.4243 99.4778 46.89C107.404 49.4243 113.145 56.8504 113.145 65.6184Z" fill="#6F5690"/>
    <path d="M103.044 57.3138C103.044 57.3138 103.378 60.7184 104.796 62.1313C105.989 63.3202 108.737 63.8832 108.737 63.8832C108.737 63.8832 106.347 64.9053 105.234 66.0729C103.914 67.4567 103.044 70.4525 103.044 70.4525C103.044 70.4525 102.174 67.4567 100.854 66.0729C99.7406 64.9053 97.3506 63.8832 97.3506 63.8832C97.3506 63.8832 99.7361 63.1753 100.854 62.1313C102.365 60.721 103.044 57.3138 103.044 57.3138Z" fill="#1E1915"/>
    <path d="M67.0643 75.565C67.0643 84.3355 61.3237 91.7615 53.3971 94.2958C51.5081 94.9017 49.494 95.228 47.4038 95.228C36.5431 95.228 27.7407 86.4257 27.7407 75.565C27.7407 64.7068 36.5431 55.9044 47.4038 55.9044C49.494 55.9044 51.5081 56.2307 53.3971 56.8366C61.3237 59.3709 67.0643 66.797 67.0643 75.565Z" fill="#634A84"/>
    <path d="M67.0644 75.565C67.0644 84.3355 61.3238 91.7615 53.3972 94.2958C45.4707 91.7615 39.73 84.3355 39.73 75.565C39.73 66.797 45.4707 59.3709 53.3972 56.8366C61.3238 59.3709 67.0644 66.797 67.0644 75.565Z" fill="#6F5690"/>
    <path d="M38.2257 69.5766C38.2257 69.5766 38.5593 72.9812 39.9775 74.3941C41.1708 75.583 43.9191 76.1459 43.9191 76.1459C43.9191 76.1459 41.5291 77.1681 40.4154 78.3357C39.0957 79.7194 38.2257 82.7153 38.2257 82.7153C38.2257 82.7153 37.3557 79.7194 36.0359 78.3357C34.9222 77.1681 32.5322 76.1459 32.5322 76.1459C32.5322 76.1459 34.9177 75.4381 36.0359 74.3941C37.5464 72.9838 38.2257 69.5766 38.2257 69.5766Z" fill="#1E1915"/>
    <path d="M97.642 86.9411C97.642 95.7115 91.9013 103.138 83.9748 105.672C82.0857 106.278 80.0716 106.604 77.9814 106.604C67.1207 106.604 58.3184 97.8017 58.3184 86.9411C58.3184 76.0828 67.1207 67.2805 77.9814 67.2805C80.0716 67.2805 82.0857 67.6068 83.9748 68.2127C91.9011 70.747 97.642 78.173 97.642 86.9411Z" fill="#634A84"/>
    <path d="M97.6421 86.9411C97.6421 95.7115 91.9014 103.138 83.9748 105.672C76.0483 103.138 70.3076 95.7115 70.3076 86.9411C70.3076 78.173 76.0483 70.747 83.9748 68.2127C91.9011 70.747 97.6421 78.173 97.6421 86.9411Z" fill="#6F5690"/>
    <path d="M88.1534 81.8394C88.1534 81.8394 88.487 85.244 89.9052 86.6569C91.0985 87.8458 93.8468 88.4087 93.8468 88.4087C93.8468 88.4087 91.4568 89.4309 90.3432 90.5985C89.0234 91.9822 88.1534 94.978 88.1534 94.978C88.1534 94.978 87.2834 91.9822 85.9636 90.5985C84.85 89.4309 82.46 88.4087 82.46 88.4087C82.46 88.4087 84.8455 87.7009 85.9636 86.6569C87.4741 85.2465 88.1534 81.8394 88.1534 81.8394Z" fill="#1E1915"/>
</svg>
