<svg width="120" height="120" viewBox="0 0 120 120" fill="none" xmlns="http://www.w3.org/2000/svg">
    <path d="M60.5 98.3924C83.9721 98.3924 103 81.2914 103 60.1962C103 39.101 83.9721 22 60.5 22C37.0279 22 18 39.101 18 60.1962C18 81.2914 37.0279 98.3924 60.5 98.3924Z" fill="#8CC275"/>
    <mask id="mask0" mask-type="alpha" maskUnits="userSpaceOnUse" x="18" y="22" width="85" height="77">
    <path d="M60.5 98.3924C83.9721 98.3924 103 81.2914 103 60.1962C103 39.101 83.9721 22 60.5 22C37.0279 22 18 39.101 18 60.1962C18 81.2914 37.0279 98.3924 60.5 98.3924Z" fill="#8CC275"/>
    </mask>

    <g mask="url(#mask0)">
    <path d="M64.798 98.4045C85.8965 98.4045 103 81.3008 103 60.2023C103 39.1037 85.8965 22 64.798 22C43.6994 22 26.5957 39.1037 26.5957 60.2023C26.5957 81.3008 43.6994 98.4045 64.798 98.4045Z" fill="#98DB7C"/>
    </g>

    <path d="M64.797 84.7094C66.7516 84.7094 68.3417 83.1193 68.3417 81.1647C68.3417 80.352 67.6881 75.9351 64.797 75.9351C63.9049 75.9351 62.6663 76.3832 61.8309 78.5184C61.4793 79.4171 61.252 80.4561 61.252 81.1647C61.2522 83.1193 62.8423 84.7094 64.797 84.7094Z" fill="#1E1915"/>
    <path d="M64.7977 44.4694C65.6897 44.4694 66.9283 44.0213 67.7638 41.8864C68.1153 40.9874 68.3424 39.9484 68.3424 39.2398C68.3424 37.2852 66.7523 35.6951 64.7977 35.6951C62.843 35.6951 61.2529 37.2852 61.2529 39.2398C61.2529 40.0525 61.9065 44.4694 64.7977 44.4694Z" fill="#1E1915"/>
    <path d="M40.2905 60.2023C40.2905 62.1569 41.8806 63.747 43.8353 63.747C44.6479 63.747 49.0646 63.0932 49.0646 60.2023C49.0646 59.3102 48.6165 58.0716 46.4816 57.2362C45.5826 56.8844 44.5439 56.6575 43.8353 56.6575C41.8806 56.6575 40.2905 58.2476 40.2905 60.2023Z" fill="#1E1915"/>
    <path d="M80.5303 60.2023C80.5303 61.0943 80.9784 62.3329 83.1136 63.1683C84.0125 63.5201 85.0513 63.747 85.7599 63.747C87.7145 63.747 89.3046 62.1569 89.3046 60.2023C89.3046 58.2476 87.7145 56.6575 85.7599 56.6575C84.9472 56.6575 80.5303 57.3114 80.5303 60.2023Z" fill="#1E1915"/>
    <path d="M52.4806 42.873C51.0985 41.4912 48.8498 41.4914 47.4675 42.8732C46.0857 44.2553 46.0857 46.5043 47.4675 47.8863L47.4678 47.8866C47.8873 48.3064 49.9124 49.838 51.7706 49.838C52.4568 49.838 53.1207 49.6289 53.672 49.0775C55.7159 47.0332 53.0555 43.4479 52.4806 42.873Z" fill="#1E1915"/>
    <path d="M77.1127 77.531C78.477 78.8953 80.762 78.8956 82.1263 77.5313C83.5081 76.1492 83.5081 73.9002 82.126 72.5179C81.5513 71.9432 77.9658 69.2829 75.9217 71.327C73.8784 73.3708 76.5383 76.9566 77.1127 77.531Z" fill="#1E1915"/>
    <path d="M77.1136 42.873C76.5392 43.4474 73.8788 47.0337 75.9224 49.0775C76.9256 50.0805 78.3916 49.9365 79.6082 49.4508C80.4977 49.0955 81.4427 48.5701 82.1269 47.8861C83.5087 46.504 83.5087 44.255 82.1267 42.8727C80.7446 41.4912 78.4956 41.4914 77.1136 42.873Z" fill="#1E1915"/>
    <path d="M47.4677 72.5182L47.4675 72.5185C46.0857 73.9005 46.0857 76.1495 47.4677 77.5318C48.832 78.8961 51.1162 78.8953 52.4808 77.5316C53.0555 76.9569 55.7158 73.3714 53.6717 71.327C51.6277 69.2834 48.0427 71.9435 47.4677 72.5182Z" fill="#1E1915"/>
</svg>
