<svg width="120" height="120" viewBox="0 0 120 120" fill="none" xmlns="http://www.w3.org/2000/svg">
    <path d="M49.8664 24.7972C49.4203 23.7144 48.1861 23.1938 47.1009 23.6371C46.0157 24.0805 45.4969 25.3194 45.9396 26.4033C45.9776 26.4938 49.6042 35.5706 46.6461 46.5275L45.284 51.5724L49.3796 52.6782L50.7417 47.6332C54.0696 35.3066 50.0397 25.22 49.8664 24.7972Z" fill="#8CC275"/>
    <path d="M74.4683 61.7794C74.7503 62.5558 74.9037 63.3937 74.9037 64.2687C74.9037 68.1574 71.8571 71.3327 68.0205 71.5408C68.2026 72.1789 68.3025 72.8512 68.3025 73.5468C68.3025 77.5696 65.041 80.8312 61.0181 80.8312C60.1938 80.8312 59.4024 80.6929 58.6644 80.4396C57.4553 83.875 54.1842 86.3383 50.3352 86.3383C46.4876 86.3383 43.2164 83.875 42.0074 80.4396C41.2694 80.6929 40.4779 80.8312 39.6536 80.8312C35.6308 80.8312 32.3692 77.5696 32.3692 73.5468C32.3692 72.8512 32.4692 72.1789 32.6513 71.5408C28.8146 71.3327 25.7667 68.1574 25.7667 64.2687C25.7667 63.3937 25.9214 62.5558 26.2035 61.7794C24.7438 60.2048 23.8511 58.0975 23.8511 55.7807C23.8511 52.5944 25.5394 49.8039 28.0697 48.2512C27.9684 47.8171 27.9137 47.3653 27.9137 46.9011C27.9137 43.6929 30.444 41.0777 33.6166 40.9394C33.7508 40.6724 33.8987 40.4136 34.0575 40.163C35.6253 37.7024 38.3748 36.0703 41.5076 36.0703C42.8988 36.0703 44.2132 36.3921 45.384 36.9658C46.797 36.0073 48.5004 35.4473 50.3352 35.4473C52.1714 35.4473 53.8747 36.0073 55.2878 36.9658C56.4571 36.3921 57.773 36.0703 59.1641 36.0703C61.9601 36.0703 64.4508 37.3711 66.0693 39.4003C66.4472 39.8754 66.7785 40.3917 67.0538 40.9394C70.2277 41.0777 72.7581 43.6929 72.7581 46.9011C72.7581 47.3653 72.7033 47.8171 72.602 48.2512C75.1324 49.8039 76.8207 52.5944 76.8207 55.7807C76.8207 58.0975 75.9279 60.2048 74.4683 61.7794Z" fill="#EF6596"/>
    <path d="M59.1645 36.0703C57.7734 36.0703 56.4575 36.3921 55.2882 36.9658C53.8751 36.0073 52.1717 35.4473 50.3356 35.4473C49.5539 35.4473 48.7964 35.5498 48.0748 35.7406C48.0762 35.7396 48.0777 35.7385 48.079 35.7376C48.0607 35.7424 48.0429 35.7482 48.0245 35.7532C48.001 35.7596 47.9779 35.7667 47.9544 35.7733C47.6878 35.8479 47.4266 35.9347 47.1708 36.033C47.1374 36.0459 47.1036 36.0582 47.0703 36.0715C47.0025 36.0985 46.9354 36.1271 46.8685 36.1557C46.8292 36.1726 46.7898 36.1891 46.7507 36.2065C46.6871 36.235 46.6238 36.2643 46.561 36.2942C46.5192 36.3139 46.4777 36.334 46.4363 36.3544C46.3762 36.3841 46.3164 36.4142 46.2571 36.4452C46.2129 36.4682 46.1692 36.492 46.1255 36.5157C46.0698 36.546 46.0141 36.5764 45.9592 36.6077C45.9089 36.6365 45.8595 36.6663 45.8099 36.696C45.7625 36.7244 45.7149 36.752 45.6682 36.7813C45.5725 36.8412 45.4777 36.9024 45.3844 36.9656C44.2136 36.3919 42.8992 36.0702 41.508 36.0702C41.5079 36.0702 41.5077 36.0702 41.5074 36.0702C41.5072 36.0702 41.5069 36.0702 41.5066 36.0702C38.0547 36.0702 35.0684 38.0515 33.617 40.9392C30.4431 41.0775 27.9127 43.6928 27.9127 46.901C27.9127 47.3651 27.9688 47.817 28.0688 48.251C25.5384 49.8038 23.8501 52.5943 23.8501 55.7806C23.8501 58.0973 24.7442 60.2046 26.2038 61.7793C25.9204 62.5556 25.7671 63.3936 25.7671 64.2686C25.7671 68.1572 28.8136 71.3326 32.6503 71.5407C32.4682 72.1787 32.3682 72.8511 32.3682 73.5466C32.3682 77.5695 35.6298 80.8311 39.6527 80.8311C40.4769 80.8311 41.2684 80.6928 42.0064 80.4395C43.2004 83.8325 46.4072 86.278 50.1959 86.3368C47.2739 86.2629 44.9284 83.8708 44.9284 80.931C44.9284 80.1752 45.0831 79.4563 45.3624 78.8032C43.4263 78.1774 42.0256 76.3618 42.0256 74.2176C42.0256 73.14 42.3788 72.1473 42.9758 71.3449C39.7882 70.5685 37.4221 67.6958 37.4221 64.2686C37.4221 63.3936 37.5769 62.5556 37.8589 61.7793C36.3993 60.2046 35.5066 58.0973 35.5066 55.7806C35.5066 54.0991 35.9768 52.5279 36.7927 51.1907C37.8692 49.4265 40.2698 49.0438 41.8499 50.3757C41.8499 50.3757 44.5231 42.8122 49.1635 44.7759C49.1635 44.7759 52.0404 39.5115 57.0655 44.4185C60.1259 47.407 64.3293 42.099 64.3293 42.099L66.0697 39.4002C64.4513 37.3711 61.9607 36.0703 59.1645 36.0703Z" fill="#DB4E80"/>
    <path d="M49.5703 35.596C48.5569 39.6058 41.7218 44.1735 36.9604 45.5869C33.4208 46.6375 29.8497 46.2947 27.0019 44.8946C26.9093 44.8507 26.818 44.8051 26.728 44.7576C25.9445 44.3471 25.2196 43.8555 24.5708 43.2892C24.4935 43.2214 24.4164 43.1528 24.3413 43.0835C25.3555 39.0739 28.7903 35.5154 33.5517 34.1019C36.2009 33.3167 39.9197 32.9981 43.2215 33.3541C45.8557 33.6384 48.2225 34.3513 49.5703 35.596Z" fill="#8CC275"/>
    <mask id="mask0" mask-type="alpha" maskUnits="userSpaceOnUse" x="24" y="33" width="26" height="14">
    <path d="M49.5703 35.596C48.5569 39.6058 41.7218 44.1735 36.9604 45.5869C33.4208 46.6375 29.8497 46.2947 27.0019 44.8946C26.9093 44.8507 26.818 44.8051 26.728 44.7576C25.9445 44.3471 25.2196 43.8555 24.5708 43.2892C24.4935 43.2214 24.4164 43.1528 24.3413 43.0835C25.3555 39.0739 28.7903 35.5154 33.5517 34.1019C36.2009 33.3167 39.9197 32.9981 43.2215 33.3541C45.8557 33.6384 48.2225 34.3513 49.5703 35.596Z" fill="#8CC275"/>
    </mask>
    <g mask="url(#mask0)">
    <path d="M51.9589 36.6207C51.3928 40.5805 45.2817 45.66 40.8444 47.4965C37.5456 48.8617 34.0745 48.8892 31.1915 47.8268C31.098 47.7939 31.0054 47.7591 30.9139 47.7225C30.1183 47.4059 29.3706 47.0054 28.6886 46.5253C28.6073 46.4678 28.526 46.4095 28.4467 46.3503C29.0138 42.3905 31.9559 38.6225 36.3932 36.7859C38.8623 35.7652 42.4081 35.0865 45.6214 35.0986C48.1851 35.1086 50.5352 35.5578 51.9589 36.6207Z" fill="#98DB7C"/>
    </g>
    <path d="M91.7832 46.9061C92.0021 45.9466 91.4075 44.9908 90.4477 44.7688C89.4879 44.5469 88.5311 45.1456 88.3093 46.1042C88.2915 46.1848 86.379 54.1731 79.0355 60.2587L75.6542 63.0607L77.9289 65.8056L81.3102 63.0036C89.5717 56.1573 91.6971 47.2803 91.7832 46.9061Z" fill="#8CC275"/>
    <path d="M90.7346 84.2184C90.5517 84.888 90.2506 85.5375 89.8263 86.138C87.9406 88.807 84.3099 89.5089 81.5757 87.7913C81.3913 88.3175 81.1339 88.8274 80.7966 89.3048C78.8458 92.0658 75.0257 92.7227 72.2646 90.7719C71.6989 90.3722 71.2228 89.8935 70.8391 89.3618C68.3433 91.1333 64.9037 91.2377 62.2621 89.3712C59.6213 87.5054 58.5707 84.2286 59.4069 81.2844C58.7775 81.1004 58.1672 80.8115 57.6015 80.4118C54.8405 78.461 54.1836 74.6409 56.1344 71.8798C56.4717 71.4024 56.8663 70.9895 57.3007 70.6399C54.7684 68.6365 54.2163 64.9792 56.102 62.3103C56.5263 61.7097 57.0388 61.2096 57.6089 60.8136C57.3707 59.025 57.7798 57.1458 58.9033 55.5557C60.4484 53.3689 62.9603 52.2724 65.45 52.4337C65.5909 52.0867 65.7724 51.75 65.9975 51.4314C67.5532 49.2296 70.5581 48.6617 72.8026 50.1052C73.0242 49.987 73.2512 49.8811 73.4817 49.7862C75.7509 48.8577 78.4294 49.0708 80.5796 50.5899C81.5344 51.2646 82.2806 52.1228 82.8058 53.0843C84.2405 53.1117 85.6811 53.5533 86.9404 54.4431C88.2006 55.3335 89.0981 56.5438 89.6031 57.8869C90.6839 58.0602 91.7431 58.4774 92.6979 59.152C94.6169 60.5079 95.6955 62.6085 95.8223 64.786C95.8513 65.2954 95.8284 65.8104 95.7516 66.3197C97.863 67.9538 98.3314 70.9757 96.7757 73.1776C96.5506 73.4962 96.2939 73.7798 96.0139 74.0285C96.9976 76.3213 96.8031 79.0552 95.258 81.242C94.1346 82.8321 92.5 83.8455 90.7346 84.2184Z" fill="#EF6596"/>
    <path d="M92.6985 59.152C91.7437 58.4774 90.6846 58.0601 89.6038 57.8868C89.0987 56.5438 88.2012 55.3334 86.941 54.443C86.4045 54.0639 85.8349 53.767 85.2472 53.548C85.2486 53.548 85.2501 53.548 85.2515 53.548C85.2366 53.5424 85.2215 53.5378 85.2066 53.5323C85.1873 53.5253 85.1679 53.5189 85.1487 53.5121C84.9295 53.434 84.7081 53.3669 84.4849 53.3104C84.4557 53.303 84.4265 53.2951 84.3973 53.288C84.3377 53.2737 84.2777 53.2608 84.2179 53.248C84.1828 53.2405 84.1477 53.2327 84.1124 53.2257C84.0549 53.2144 83.9973 53.2038 83.9397 53.1938C83.9015 53.1871 83.8632 53.1808 83.825 53.1748C83.7693 53.166 83.7136 53.1577 83.6579 53.1502C83.6164 53.1445 83.5749 53.1397 83.5334 53.1347C83.4805 53.1285 83.4275 53.1223 83.3746 53.1172C83.3262 53.1126 83.2778 53.1091 83.2294 53.1055C83.1831 53.1019 83.137 53.0978 83.0907 53.0953C82.996 53.0899 82.9013 53.086 82.8065 53.0841C82.2813 52.1227 81.5351 51.2644 80.5803 50.5898C80.5802 50.5897 80.5801 50.5897 80.5799 50.5895C80.5798 50.5894 80.5796 50.5893 80.5794 50.5891C78.2102 48.9152 75.1998 48.8269 72.8033 50.105C70.5579 48.6608 67.553 49.2287 65.9973 51.4306C65.7722 51.7492 65.5916 52.0865 65.4497 52.4329C62.9601 52.2715 60.4482 53.3681 58.9031 55.5549C57.7796 57.145 57.3714 59.0249 57.6096 60.8134C57.0386 61.2088 56.527 61.7096 56.1027 62.3101C54.217 64.979 54.7682 68.6357 57.3005 70.639C56.866 70.9886 56.4714 71.4016 56.1341 71.879C54.1833 74.64 54.8402 78.4602 57.6013 80.4109C58.167 80.8107 58.7772 81.0995 59.4066 81.2836C58.5807 84.1913 59.5958 87.4248 62.1676 89.3024C60.198 87.8347 59.7481 85.0556 61.1737 83.0379C61.5402 82.5191 61.995 82.1008 62.5034 81.788C61.4781 80.4196 61.3971 78.4942 62.4369 77.0226C62.9595 76.283 63.6833 75.773 64.4822 75.5118C62.6709 73.4332 62.44 70.3142 64.102 67.9619C64.5262 67.3614 65.0388 66.8613 65.6089 66.4653C65.3707 64.6767 65.7798 62.7975 66.9033 61.2074C67.7186 60.0534 68.8033 59.203 70.0117 58.6809C71.6061 57.9922 73.4392 58.8936 73.8779 60.5739C73.8779 60.5739 79.3803 56.6792 81.6129 60.2771C81.6129 60.2771 86.1403 58.0591 87.2096 63.8637C87.8608 67.3989 93.3198 65.7942 93.3198 65.7942L95.823 64.7859C95.6962 62.6085 94.6176 60.5079 92.6985 59.152Z" fill="#DB4E80"/>
    <path d="M86.3436 54.1743C83.7037 56.4349 76.7974 56.2554 72.8442 54.9166C69.9053 53.9211 67.6206 51.9542 66.3451 49.6122C66.3028 49.5372 66.2622 49.4616 66.2234 49.3854C65.8848 48.7238 65.6256 48.0348 65.455 47.3315C65.4348 47.2475 65.4151 47.163 65.3972 47.079C68.0377 44.819 72.1207 44.0422 76.074 45.381C78.2731 46.1268 80.9798 47.7115 83.0734 49.5569C84.7434 51.0295 86.0221 52.6665 86.3436 54.1743Z" fill="#8CC275"/>
    <mask id="mask1" mask-type="alpha" maskUnits="userSpaceOnUse" x="65" y="44" width="22" height="12">
    <path d="M86.3436 54.1743C83.7037 56.4349 76.7974 56.2554 72.8442 54.9166C69.9053 53.9211 67.6206 51.9542 66.3451 49.6122C66.3028 49.5372 66.2622 49.4616 66.2234 49.3854C65.8848 48.7238 65.6256 48.0348 65.455 47.3315C65.4348 47.2475 65.4151 47.163 65.3972 47.079C68.0377 44.819 72.1207 44.0422 76.074 45.381C78.2731 46.1268 80.9798 47.7115 83.0734 49.5569C84.7434 51.0295 86.0221 52.6665 86.3436 54.1743Z" fill="#8CC275"/>
    </mask>
    <g mask="url(#mask1)">
    <path d="M87.4862 56.0358C85.1774 58.479 78.52 59.0018 74.5839 58.1105C71.6579 57.4478 69.2622 55.7834 67.7987 53.6563C67.7505 53.5883 67.7038 53.5196 67.6588 53.4501C67.2662 52.8469 66.9473 52.2095 66.712 51.5493C66.6841 51.4704 66.6566 51.391 66.6309 51.3119C68.9403 48.8692 72.7867 47.7097 76.7228 48.601C78.9124 49.0977 81.6751 50.3514 83.8746 51.918C85.6293 53.168 87.0244 54.6159 87.4862 56.0358Z" fill="#98DB7C"/>
    </g>
</svg>
