<svg width="120" height="120" viewBox="0 0 120 120" fill="none" xmlns="http://www.w3.org/2000/svg">
<path d="M14.0879 36.9623C18.0188 34.3415 27.4452 35.5132 32.6672 37.8123C36.5492 39.5216 39.3993 42.4224 40.8156 45.6804C40.8629 45.785 40.9078 45.8901 40.9501 45.9957C41.3205 46.9133 41.5783 47.856 41.7129 48.8057C41.7287 48.9191 41.7438 49.0331 41.7565 49.1462C37.8249 51.7661 32.1278 52.2366 26.9057 49.9375C24.001 48.6573 20.5195 46.203 17.9139 43.4883C15.8355 41.3222 14.3157 38.9924 14.0879 36.9623Z" fill="#8CC275"/>
<mask id="mask0" mask-type="alpha" maskUnits="userSpaceOnUse" x="14" y="35" width="28" height="17">
<path d="M14.0879 36.9623C18.0188 34.3415 27.4452 35.5132 32.6672 37.8123C36.5492 39.5216 39.3993 42.4224 40.8156 45.6804C40.8629 45.785 40.9078 45.8901 40.9501 45.9957C41.3205 46.9133 41.5783 47.856 41.7129 48.8057C41.7287 48.9191 41.7438 49.0331 41.7565 49.1462C37.8249 51.7661 32.1278 52.2366 26.9057 49.9375C24.001 48.6573 20.5195 46.203 17.9139 43.4883C15.8355 41.3222 14.3157 38.9924 14.0879 36.9623Z" fill="#8CC275"/>
</mask>
<g mask="url(#mask0)">
<path d="M12.786 34.3553C16.2894 31.449 25.474 31.6617 30.7355 33.3689C34.6468 34.6381 37.6913 37.1552 39.395 40.1558C39.4515 40.2519 39.5057 40.3488 39.5575 40.4464C40.0099 41.2942 40.3568 42.1772 40.5859 43.0788C40.613 43.1865 40.6395 43.2948 40.6636 43.4026C37.1594 46.308 31.7322 47.3147 26.4707 45.6076C23.544 44.6567 19.9394 42.631 17.1495 40.2693C14.9239 38.3849 13.2182 36.2885 12.786 34.3553Z" fill="#98DB7C"/>
</g>
<path d="M35.9339 25.6768C40.1409 27.8646 43.3226 36.4863 43.5569 42.0094C43.7308 46.1154 42.3341 49.8749 39.9573 52.5654C39.8819 52.6534 39.8049 52.7395 39.7262 52.8237C39.0439 53.5569 38.2874 54.205 37.4687 54.7504C37.3708 54.8153 37.272 54.8798 37.173 54.9419C32.9665 52.7532 29.9517 48.0759 29.7175 42.5527C29.5885 39.4799 30.2858 35.3805 31.621 31.9151C32.6865 29.1504 34.1566 26.7913 35.9339 25.6768Z" fill="#8CC275"/>
<mask id="mask1" mask-type="alpha" maskUnits="userSpaceOnUse" x="29" y="25" width="15" height="30">
<path d="M35.9339 25.6768C40.1409 27.8646 43.3226 36.4863 43.5569 42.0094C43.7308 46.1154 42.3341 49.8749 39.9573 52.5654C39.8819 52.6534 39.8049 52.7395 39.7262 52.8237C39.0439 53.5569 38.2874 54.205 37.4687 54.7504C37.3708 54.8153 37.272 54.8798 37.173 54.9419C32.9665 52.7532 29.9517 48.0759 29.7175 42.5527C29.5885 39.4799 30.2858 35.3805 31.621 31.9151C32.6865 29.1504 34.1566 26.7913 35.9339 25.6768Z" fill="#8CC275"/>
</mask>
<g mask="url(#mask1)">
<path d="M37.7596 23.3793C42.0375 25.071 45.998 33.0511 46.7984 38.3401C47.3933 42.272 46.4399 46.0247 44.4318 48.8454C44.3683 48.9374 44.3031 49.0278 44.2361 49.1165C43.6556 49.8886 42.9948 50.586 42.2633 51.1908C42.1758 51.2629 42.0875 51.3346 41.9986 51.404C37.7211 49.7114 34.3319 45.5085 33.5314 40.2195C33.0874 37.2768 33.3321 33.2658 34.2568 29.8019C34.9948 27.0385 36.1646 24.6255 37.7596 23.3793Z" fill="#98DB7C"/>
</g>
<path d="M57.963 36.7793C57.9387 41.3822 51.5351 48.1436 46.5836 50.9429C42.9026 53.0237 38.7994 53.6075 35.2147 52.8557C35.0986 52.833 34.9833 52.8082 34.8692 52.781C33.8759 52.5468 32.9259 52.2094 32.0405 51.7708C31.9349 51.7183 31.8293 51.6648 31.7258 51.6099C31.7512 47.0069 34.6185 42.2445 39.57 39.4452C42.3254 37.8889 46.4107 36.5511 50.2153 36.0535C53.2506 35.6568 56.1049 35.7946 57.963 36.7793Z" fill="#8CC275"/>
<mask id="mask2" mask-type="alpha" maskUnits="userSpaceOnUse" x="31" y="35" width="27" height="19">
<path d="M57.963 36.7793C57.9387 41.3822 51.5351 48.1436 46.5836 50.9429C42.9026 53.0237 38.7994 53.6075 35.2147 52.8557C35.0986 52.833 34.9833 52.8082 34.8692 52.781C33.8759 52.5468 32.9259 52.2094 32.0405 51.7708C31.9349 51.7183 31.8293 51.6648 31.7258 51.6099C31.7512 47.0069 34.6185 42.2445 39.57 39.4452C42.3254 37.8889 46.4107 36.5511 50.2153 36.0535C53.2506 35.6568 56.1049 35.7946 57.963 36.7793Z" fill="#8CC275"/>
</mask>
<g mask="url(#mask2)">
<path d="M60.9281 37.2481C61.3918 41.6777 55.9429 48.7984 51.4725 51.9683C48.1491 54.3247 44.261 55.2818 40.7305 54.9044C40.6163 54.8937 40.5028 54.8809 40.39 54.8658C39.409 54.7363 38.4587 54.5034 37.5601 54.1669C37.4528 54.1266 37.3455 54.0853 37.24 54.0425C36.7774 49.6128 39.0335 44.7556 43.5039 41.5858C45.9917 39.8232 49.7829 38.1425 53.3928 37.2971C56.2728 36.6228 59.0351 36.4802 60.9281 37.2481Z" fill="#98DB7C"/>
</g>
<path d="M73.5038 36.1705C78.2545 36.693 84.5424 43.5541 86.8963 48.5961C88.646 52.3444 88.8039 56.3343 87.6388 59.6833C87.6028 59.7919 87.5646 59.8995 87.5242 60.0058C87.1746 60.9309 86.7232 61.8035 86.1743 62.6031C86.1085 62.6985 86.0418 62.7938 85.9739 62.8869C81.2233 62.3634 76.6161 59.1031 74.2623 54.0611C72.9539 51.2555 72.0154 47.201 71.9141 43.5062C71.8336 40.5584 72.2854 37.842 73.5038 36.1705Z" fill="#8CC275"/>
<mask id="mask3" mask-type="alpha" maskUnits="userSpaceOnUse" x="71" y="36" width="18" height="27">
<path d="M73.5038 36.1705C78.2545 36.693 84.5424 43.5541 86.8963 48.5961C88.646 52.3444 88.8039 56.3343 87.6388 59.6833C87.6028 59.7919 87.5646 59.8995 87.5242 60.0058C87.1746 60.9309 86.7232 61.8035 86.1743 62.6031C86.1085 62.6985 86.0418 62.7938 85.9739 62.8869C81.2233 62.3634 76.6161 59.1031 74.2623 54.0611C72.9539 51.2555 72.0154 47.201 71.9141 43.5062C71.8336 40.5584 72.2854 37.842 73.5038 36.1705Z" fill="#8CC275"/>
</mask>
<g mask="url(#mask3)">
<path d="M74.3095 33.3839C78.9341 33.4204 85.6967 39.407 88.4854 44.0287C90.5584 47.4646 91.1252 51.2892 90.3526 54.6269C90.3292 54.735 90.3037 54.8423 90.2758 54.9486C90.0357 55.8732 89.6921 56.7574 89.2473 57.5809C89.1939 57.6791 89.1397 57.7774 89.084 57.8737C84.4594 57.8361 79.6882 55.1503 76.8995 50.5286C75.3491 47.9567 74.0246 44.1464 73.5429 40.6002C73.159 37.771 73.3112 35.1121 74.3095 33.3839Z" fill="#98DB7C"/>
</g>
<path d="M97.6615 41.5406C99.3281 45.855 95.8191 54.3582 92.2143 58.661C89.5343 61.8596 85.9101 63.8013 82.2806 64.3172C82.1637 64.3355 82.0467 64.3514 81.9299 64.3648C80.9148 64.4835 79.9022 64.491 78.913 64.3818C78.7949 64.3686 78.6765 64.3544 78.5595 64.3383C76.8939 60.0236 77.8283 54.5931 81.4331 50.2902C83.4396 47.8972 86.7705 45.2562 90.147 43.4967C92.841 42.0933 95.5618 41.2514 97.6615 41.5406Z" fill="#8CC275"/>
<mask id="mask4" mask-type="alpha" maskUnits="userSpaceOnUse" x="77" y="41" width="22" height="24">
<path d="M97.6615 41.5406C99.3281 45.855 95.8191 54.3582 92.2143 58.661C89.5343 61.8596 85.9101 63.8013 82.2806 64.3172C82.1637 64.3355 82.0467 64.3514 81.9299 64.3648C80.9148 64.4835 79.9022 64.491 78.913 64.3818C78.7949 64.3686 78.6765 64.3544 78.5595 64.3383C76.8939 60.0236 77.8283 54.5931 81.4331 50.2902C83.4396 47.8972 86.7705 45.2562 90.147 43.4967C92.841 42.0933 95.5618 41.2514 97.6615 41.5406Z" fill="#8CC275"/>
</mask>
<g mask="url(#mask4)">
<path d="M100.607 40.9708C102.667 44.9569 100.183 53.4716 97.1641 57.9575C94.9199 61.2922 91.6338 63.51 88.1925 64.3577C88.0818 64.3866 87.9708 64.4132 87.8597 64.4374C86.8946 64.6499 85.92 64.7552 84.9559 64.7461C84.8407 64.7448 84.7252 64.7427 84.6108 64.7386C82.5522 60.7519 82.8802 55.4407 85.8988 50.9548C87.5793 48.4598 90.5092 45.5981 93.5759 43.5794C96.0228 41.9691 98.5545 40.8962 100.607 40.9708Z" fill="#98DB7C"/>
</g>
<path d="M106.63 63.8664C103.461 67.313 94.0157 68.3363 88.3752 67.3006C84.182 66.5305 80.6962 64.3667 78.5146 61.5271C78.4428 61.4364 78.3731 61.3446 78.3058 61.2517C77.7191 60.4455 77.2355 59.589 76.8698 58.6975C76.8264 58.591 76.7836 58.4838 76.7433 58.3768C79.9134 54.9309 85.3303 53.1677 90.9708 54.2034C94.1087 54.7808 98.0973 56.3662 101.3 58.4054C103.854 60.0326 105.907 61.947 106.63 63.8664Z" fill="#8CC275"/>
<mask id="mask5" mask-type="alpha" maskUnits="userSpaceOnUse" x="76" y="53" width="31" height="15">
<path d="M106.63 63.8664C103.461 67.313 94.0157 68.3363 88.3752 67.3006C84.182 66.5305 80.6962 64.3667 78.5146 61.5271C78.4428 61.4364 78.3731 61.3446 78.3058 61.2517C77.7191 60.4455 77.2355 59.589 76.8698 58.6975C76.8264 58.591 76.7836 58.4838 76.7433 58.3768C79.9134 54.9309 85.3303 53.1677 90.9708 54.2034C94.1087 54.7808 98.0973 56.3662 101.3 58.4054C103.854 60.0326 105.907 61.947 106.63 63.8664Z" fill="#8CC275"/>
</mask>
<g mask="url(#mask5)">
<path d="M108.539 66.1C105.856 69.7258 96.8829 71.625 91.3506 71.1733C87.2378 70.8374 83.6581 69.0907 81.261 66.5672C81.1824 66.4867 81.1058 66.4051 81.0313 66.3221C80.3822 65.6025 79.8268 64.8244 79.3812 64.0013C79.3282 63.9029 79.2757 63.8037 79.2257 63.7046C81.9101 60.0794 86.9322 57.8573 92.4645 58.309C95.5423 58.5615 99.5444 59.7025 102.838 61.3566C105.466 62.6765 107.641 64.3215 108.539 66.1Z" fill="#98DB7C"/>
</g>
<path d="M14.0873 64.4968C14.0873 52.2393 24.4096 42.3026 37.1428 42.3026C49.8759 42.3026 60.1982 52.2393 60.1982 64.4968C60.1982 68.4339 59.0706 71.8453 57.2678 75.3305C54.7353 80.2259 49.2289 89.1449 40.7215 94.0455C38.5233 95.3118 35.7762 95.3185 33.575 94.057C28.4904 91.143 24.3622 86.7336 21.0786 82.048C20.2187 80.8209 19.4092 79.5606 18.6486 78.2741C16.1053 73.9724 14.0873 69.5538 14.0873 64.4968Z" fill="#E94444"/>
<path d="M14.0888 64.4975C14.0888 69.5535 16.1051 73.9717 18.6501 78.2735C19.409 79.5601 20.2189 80.8214 21.0799 82.0482C24.363 86.7335 28.4919 91.1427 33.5763 94.0577C35.7077 95.279 38.3491 95.3118 40.5107 94.163C39.4649 94.0848 38.4322 93.7778 37.4976 93.2417C32.4133 90.3284 28.2844 85.9193 25.0012 81.234C24.1403 80.0072 23.3323 78.7459 22.5713 77.4592C20.0282 73.1574 18.01 68.7392 18.01 63.6832C18.01 53.7129 24.8387 45.2782 34.2389 42.4777C22.8752 43.8535 14.0888 53.1859 14.0888 64.4975Z" fill="#D83131"/>
<path d="M30.9016 74.3337C31.6595 74.3337 32.2739 73.7422 32.2739 73.0127V70.5802C32.2739 69.8507 31.6595 69.2592 30.9016 69.2592C30.1438 69.2592 29.5294 69.8507 29.5294 70.5802V73.0127C29.5294 73.7422 30.1436 74.3337 30.9016 74.3337Z" fill="#FFC261"/>
<path d="M43.3841 74.3337C44.1419 74.3337 44.7563 73.7422 44.7563 73.0127V70.5802C44.7563 69.8507 44.1419 69.2592 43.3841 69.2592C42.6262 69.2592 42.0118 69.8507 42.0118 70.5802V73.0127C42.0118 73.7422 42.6262 74.3337 43.3841 74.3337Z" fill="#FFC261"/>
<path d="M37.1429 64.8912C37.9007 64.8912 38.5151 64.2998 38.5151 63.5702V61.1378C38.5151 60.4082 37.9007 59.8168 37.1429 59.8168C36.385 59.8168 35.7706 60.4082 35.7706 61.1378V63.5702C35.7706 64.2998 36.385 64.8912 37.1429 64.8912Z" fill="#FFC261"/>
<path d="M23.8123 64.8912C24.5702 64.8912 25.1846 64.2998 25.1846 63.5702V61.1378C25.1846 60.4082 24.5702 59.8168 23.8123 59.8168C23.0544 59.8168 22.44 60.4082 22.44 61.1378V63.5702C22.44 64.2998 23.0544 64.8912 23.8123 64.8912Z" fill="#FFC261"/>
<path d="M37.1429 82.5335C37.9007 82.5335 38.5151 81.9421 38.5151 81.2125V78.7801C38.5151 78.0505 37.9007 77.4591 37.1429 77.4591C36.385 77.4591 35.7706 78.0505 35.7706 78.7801V81.2125C35.7706 81.9421 36.385 82.5335 37.1429 82.5335Z" fill="#FFC261"/>
<path d="M56.701 55.046C65.7047 46.3787 80.3027 46.3787 89.3063 55.046C98.31 63.7133 98.31 77.766 89.3063 86.4334C86.4143 89.2175 83.1111 90.8622 79.2762 92.0992C73.8897 93.8368 63.4446 96.3955 53.8293 94.0698C51.3449 93.4689 49.3974 91.6036 48.7676 89.2132C47.3126 83.6917 47.6326 77.7637 48.7524 72.2154C49.0457 70.7623 49.399 69.3202 49.8061 67.8926C51.1678 63.1197 52.9865 58.6219 56.701 55.046Z" fill="#E94444"/>
<path d="M48.7673 89.2125C49.3978 91.6023 51.3442 93.4671 53.8288 94.0686C55.4033 94.4503 56.9968 94.6992 58.5902 94.8429C58.3222 94.7865 58.0541 94.7267 57.7859 94.6611C55.3013 94.0596 53.3549 92.1949 52.7244 89.8051C51.2688 84.2837 51.5898 78.3553 52.7092 72.8067C53.0018 71.3527 53.3549 69.9115 53.7627 68.4848C55.1239 63.7105 56.9439 59.2143 60.6575 55.6375C65.5585 50.9195 72.1173 48.7694 78.5288 49.1874C70.9543 47.3953 62.6191 49.3473 56.7003 55.0449C52.9868 58.6198 51.1667 63.118 49.8056 67.8923C49.3978 69.319 49.0448 70.7602 48.7521 72.2142C47.6326 77.7628 47.3117 83.6912 48.7673 89.2125Z" fill="#D83131"/>
<path d="M62.3342 73.8329C62.6853 73.8329 63.0366 73.704 63.3045 73.4459L65.0912 71.726C65.6271 71.2101 65.6271 70.3736 65.0912 69.8579C64.5553 69.342 63.6864 69.342 63.1506 69.8579L61.3639 71.5778C60.828 72.0937 60.828 72.9302 61.3639 73.4459C61.6318 73.7038 61.9829 73.8329 62.3342 73.8329Z" fill="#FFC261"/>
<path d="M71.1609 82.3297C71.512 82.3297 71.8633 82.2008 72.1312 81.9427L73.9179 80.2226C74.4538 79.7067 74.4538 78.8702 73.9179 78.3545C73.382 77.8386 72.513 77.8386 71.9773 78.3545L70.1906 80.0746C69.6547 80.5905 69.6547 81.427 70.1906 81.9427C70.4584 82.2006 70.8097 82.3297 71.1609 82.3297Z" fill="#FFC261"/>
<path d="M73.6833 71.4045C74.0345 71.4045 74.3858 71.2756 74.6536 71.0176L76.4403 69.2976C76.9763 68.7817 76.9763 67.9452 76.4403 67.4295C75.9044 66.9136 75.0355 66.9136 74.4998 67.4295L72.713 69.1495C72.1771 69.6654 72.1771 70.5018 72.713 71.0176C72.9809 71.2754 73.3322 71.4045 73.6833 71.4045Z" fill="#FFC261"/>
<path d="M64.2571 62.33C64.6082 62.33 64.9595 62.2011 65.2274 61.943L67.0141 60.223C67.55 59.7071 67.55 58.8707 67.0141 58.3549C66.4782 57.839 65.6092 57.839 65.0735 58.3549L63.2868 60.0749C62.7508 60.5908 62.7508 61.4273 63.2868 61.943C63.5546 62.2009 63.9059 62.33 64.2571 62.33Z" fill="#FFC261"/>
<path d="M83.1101 80.479C83.4612 80.479 83.8125 80.3501 84.0804 80.0921L85.8671 78.3721C86.403 77.8562 86.403 77.0197 85.8671 76.504C85.3312 75.9881 84.4622 75.9881 83.9265 76.504L82.1398 78.224C81.6039 78.7399 81.6039 79.5763 82.1398 80.0921C82.4077 80.3499 82.7588 80.479 83.1101 80.479Z" fill="#FFC261"/>
<path d="M60.7243 83.8795C61.0755 83.8795 61.4268 83.7506 61.6946 83.4926L63.4814 81.7724C64.0173 81.2565 64.0173 80.4201 63.4814 79.9043C62.9454 79.3884 62.0765 79.3882 61.5408 79.9043L59.7541 81.6245C59.2181 82.1404 59.2181 82.9768 59.7541 83.4926C60.0219 83.7504 60.3732 83.8795 60.7243 83.8795Z" fill="#FFC261"/>
</svg>
