<svg width="120" height="120" viewBox="0 0 120 120" fill="none" xmlns="http://www.w3.org/2000/svg">
<path d="M41.2654 7.30487C47.9837 7.36961 58.1275 16.2905 62.4266 23.1722C65.6223 28.2882 66.6514 33.979 65.7091 38.9425C65.681 39.1033 65.6498 39.2628 65.615 39.4209C65.3161 40.7959 64.8648 42.1105 64.263 43.3346C64.1908 43.4806 64.1173 43.6266 64.0417 43.7698C57.3233 43.7035 50.2493 39.6974 45.9503 32.8157C43.5601 28.9862 41.4313 23.3149 40.5408 18.0384C39.8308 13.8287 39.9086 9.87365 41.2654 7.30487Z" fill="#8CC275"/>
<mask id="mask0" mask-type="alpha" maskUnits="userSpaceOnUse" x="29" y="5" width="46" height="42">
<path d="M41.2654 7.30487C47.9837 7.36961 58.1275 16.2905 62.4266 23.1722C65.6223 28.2882 66.6514 33.979 65.7091 38.9425C65.681 39.1033 65.6498 39.2628 65.615 39.4209C65.3161 40.7959 64.8648 42.1105 64.263 43.3346C64.1908 43.4806 64.1173 43.6266 64.0417 43.7698C57.3233 43.7035 50.2493 39.6974 45.9503 32.8157C43.5601 28.9862 41.4313 23.3149 40.5408 18.0384C39.8308 13.8287 39.9086 9.87365 41.2654 7.30487Z" fill="#8CC275"/>
</mask>
<g mask="url(#mask0)">
<path d="M41.8212 3.19836C48.2655 2.58548 58.8925 10.1856 63.7116 16.4029C67.2939 21.0251 68.8586 26.4205 68.4603 31.3112C68.4497 31.4694 68.436 31.6267 68.4187 31.783C68.2721 33.1416 67.9733 34.4572 67.5211 35.7005C67.4668 35.8489 67.4112 35.9974 67.3533 36.1433C60.9088 36.7547 53.723 33.5949 48.904 27.3776C46.2243 23.9176 43.6079 18.6516 42.2181 13.6426C41.1098 9.64633 40.7823 5.81688 41.8212 3.19836Z" fill="#98DB7C"/>
</g>
<path d="M80.4826 7.02261C83.6774 12.9611 80.5183 25.6428 76.3738 32.3231C73.2925 37.2892 68.6419 40.591 63.6948 41.852C63.5357 41.8949 63.3762 41.9346 63.2164 41.9706C61.8276 42.2866 60.4196 42.443 59.0207 42.4289C58.8536 42.4269 58.6859 42.4238 58.5198 42.4175C55.3263 36.4782 55.5252 28.5671 59.6697 21.8868C61.9771 18.1712 66.0775 13.9101 70.4203 10.9047C73.8853 8.5074 77.5014 6.91051 80.4826 7.02261Z" fill="#8CC275"/>
<mask id="mask1" mask-type="alpha" maskUnits="userSpaceOnUse" x="56" y="7" width="26" height="36">
<path d="M80.4826 7.02261C83.6774 12.9611 80.5183 25.6428 76.3738 32.3231C73.2925 37.2892 68.6419 40.591 63.6948 41.852C63.5357 41.8949 63.3762 41.9346 63.2164 41.9706C61.8276 42.2866 60.4196 42.443 59.0207 42.4289C58.8536 42.4269 58.6859 42.4238 58.5198 42.4175C55.3263 36.4782 55.5252 28.5671 59.6697 21.8868C61.9771 18.1712 66.0775 13.9101 70.4203 10.9047C73.8853 8.5074 77.5014 6.91051 80.4826 7.02261Z" fill="#8CC275"/>
</mask>
<g mask="url(#mask1)">
<path d="M84.4673 5.78272C88.1426 11.1948 86.4124 23.7455 83.1208 30.6036C80.6736 35.7019 76.5497 39.3506 71.9318 41.0595C71.7835 41.1168 71.6346 41.1709 71.4848 41.2215C70.1845 41.6647 68.8495 41.9557 67.5056 42.0813C67.3451 42.096 67.1838 42.1096 67.0238 42.1201C63.3498 36.7072 62.7289 29.0542 66.0205 22.196C67.8534 18.3813 71.3508 13.8618 75.2098 10.5298C78.2889 7.87187 81.5951 5.97122 84.4673 5.78272Z" fill="#98DB7C"/>
</g>
<path d="M27.377 26.4266C32.967 22.6996 46.3724 24.3658 53.7986 27.6353C59.3192 30.0662 63.3724 34.1913 65.3865 38.8246C65.4538 38.9733 65.5177 39.1228 65.5779 39.273C66.1046 40.5779 66.4712 41.9186 66.6626 43.2691C66.6851 43.4304 66.7065 43.5925 66.7246 43.7533C61.1335 47.4791 53.0315 48.1482 45.6053 44.8787C41.4745 43.0581 36.5234 39.5678 32.818 35.7072C29.8622 32.6268 27.7009 29.3135 27.377 26.4266Z" fill="#8CC275"/>
<mask id="mask2" mask-type="alpha" maskUnits="userSpaceOnUse" x="27" y="24" width="40" height="23">
<path d="M27.377 26.4266C32.967 22.6996 46.3724 24.3658 53.7986 27.6353C59.3192 30.0662 63.3724 34.1913 65.3865 38.8246C65.4538 38.9733 65.5177 39.1228 65.5779 39.273C66.1046 40.5779 66.4712 41.9186 66.6626 43.2691C66.6851 43.4304 66.7065 43.5925 66.7246 43.7533C61.1335 47.4791 53.0315 48.1482 45.6053 44.8787C41.4745 43.0581 36.5234 39.5678 32.818 35.7072C29.8622 32.6268 27.7009 29.3135 27.377 26.4266Z" fill="#8CC275"/>
</mask>
<g mask="url(#mask2)">
<path d="M25.5256 22.7191C30.5078 18.5861 43.5694 18.8886 51.0517 21.3163C56.614 23.1213 60.9436 26.7009 63.3665 30.968C63.4467 31.1047 63.5239 31.2425 63.5975 31.3813C64.2409 32.587 64.7342 33.8427 65.06 35.1249C65.0986 35.2781 65.1362 35.4321 65.1705 35.5853C60.1872 39.7172 52.4691 41.1488 44.9868 38.7211C40.8246 37.3688 35.6985 34.488 31.731 31.1294C28.5659 28.4496 26.1403 25.4683 25.5256 22.7191Z" fill="#98DB7C"/>
</g>
<path d="M60.1024 11.9421C65.8806 15.4186 69.6358 27.9367 69.4809 35.7967C69.3655 41.6399 67.0512 46.8528 63.4403 50.4619C63.3254 50.58 63.2085 50.6955 63.0894 50.808C62.0563 51.7886 60.9253 52.6416 59.7151 53.3435C59.5705 53.427 59.4246 53.5099 59.2785 53.5893C53.5012 50.1114 49.6349 43.2066 49.7898 35.3466C49.8779 30.9737 51.2294 25.2167 53.4303 20.4159C55.1867 16.5859 57.4815 13.3671 60.1024 11.9421Z" fill="#8CC275"/>
<mask id="mask3" mask-type="alpha" maskUnits="userSpaceOnUse" x="49" y="11" width="21" height="43">
<path d="M60.1024 11.9421C65.8806 15.4186 69.6358 27.9367 69.4809 35.7967C69.3655 41.6399 67.0512 46.8528 63.4403 50.4619C63.3254 50.58 63.2085 50.6955 63.0894 50.808C62.0563 51.7886 60.9253 52.6416 59.7151 53.3435C59.5705 53.427 59.4246 53.5099 59.2785 53.5893C53.5012 50.1114 49.6349 43.2066 49.7898 35.3466C49.8779 30.9737 51.2294 25.2167 53.4303 20.4159C55.1867 16.5859 57.4815 13.3671 60.1024 11.9421Z" fill="#8CC275"/>
</mask>
<g mask="url(#mask3)">
<path d="M62.8964 8.84225C68.819 11.6208 73.7362 23.297 74.4055 30.8747C74.9029 36.508 73.2185 41.7503 70.1194 45.5767C70.0211 45.7016 69.9206 45.8242 69.8177 45.9441C68.9256 46.9888 67.9261 47.9204 66.8345 48.7143C66.704 48.8089 66.5722 48.9029 66.4399 48.9936C60.518 46.2136 56.0783 39.9491 55.409 32.3714C55.0384 28.1555 55.7397 22.484 57.3578 17.6491C58.6492 13.792 60.5225 10.4702 62.8964 8.84225Z" fill="#98DB7C"/>
</g>
<path d="M92.1906 25.8458C92.156 32.3916 83.0495 42.007 76.0079 45.9879C70.7731 48.9471 64.938 49.7773 59.8401 48.7081C59.675 48.6759 59.5111 48.6405 59.3487 48.6019C57.9363 48.2688 56.5852 47.789 55.3262 47.1653C55.176 47.0906 55.0258 47.0145 54.8785 46.9365C54.9147 40.3906 58.9922 33.6178 66.0338 29.6369C69.9523 27.4237 75.762 25.5213 81.1725 24.8136C85.4891 24.2495 89.5481 24.4455 92.1906 25.8458Z" fill="#8CC275"/>
<mask id="mask4" mask-type="alpha" maskUnits="userSpaceOnUse" x="54" y="24" width="39" height="26">
<path d="M92.1906 25.8458C92.156 32.3916 83.0495 42.007 76.0079 45.9879C70.7731 48.9471 64.938 49.7773 59.8401 48.7081C59.675 48.6759 59.5111 48.6405 59.3487 48.6019C57.9363 48.2688 56.5852 47.789 55.3262 47.1653C55.176 47.0906 55.0258 47.0145 54.8785 46.9365C54.9147 40.3906 58.9922 33.6178 66.0338 29.6369C69.9523 27.4237 75.762 25.5213 81.1725 24.8136C85.4891 24.2495 89.5481 24.4455 92.1906 25.8458Z" fill="#8CC275"/>
</mask>
<g mask="url(#mask4)">
<path d="M96.4074 26.5125C97.0668 32.8118 89.318 42.9382 82.9607 47.4461C78.2344 50.7971 72.7051 52.1583 67.6844 51.6215C67.522 51.6064 67.3605 51.5882 67.2001 51.5667C65.8051 51.3825 64.4537 51.0513 63.1757 50.5728C63.0232 50.5154 62.8705 50.4567 62.7205 50.3959C62.0626 44.0964 65.2711 37.189 71.6284 32.6811C75.1664 30.1745 80.5579 27.7845 85.6915 26.5821C89.7872 25.6233 93.7154 25.4204 96.4074 26.5125Z" fill="#98DB7C"/>
</g>
<path d="M63.0516 115.391H55.9088C40.0091 115.391 27 102.382 27 86.4821V68.7052C27 52.8054 40.0089 39.7963 55.9088 39.7963H63.0518C78.9515 39.7963 91.9606 52.8052 91.9606 68.7052V86.4821C91.9604 102.382 78.9515 115.391 63.0516 115.391Z" fill="#EDB740"/>
<path d="M65.2986 115H58.7012C44.0157 115 32 102.093 32 86.3186V68.6814C32 52.9068 44.0155 40 58.7012 40H65.2988C79.9843 40 92 52.9065 92 68.6814V86.3186C91.9998 102.093 79.9843 115 65.2986 115Z" fill="#F9D438"/>
<mask id="mask5" mask-type="alpha" maskUnits="userSpaceOnUse" x="32" y="40" width="60" height="75">
<path d="M65.2986 115H58.7012C44.0157 115 32 102.093 32 86.3186V68.6814C32 52.9068 44.0155 40 58.7012 40H65.2988C79.9843 40 92 52.9065 92 68.6814V86.3186C91.9998 102.093 79.9843 115 65.2986 115Z" fill="#F9D438"/>
</mask>
<g mask="url(#mask5)">
<mask id="mask6" mask-type="alpha" maskUnits="userSpaceOnUse" x="32" y="39" width="60" height="77">
<path d="M65.307 116H58.7118C44.0309 116 32.019 102.85 32.019 86.7768V68.8065C32.019 52.7339 44.0307 39.5833 58.7118 39.5833H65.3072C79.9881 39.5833 92 52.7336 92 68.8065V86.7768C91.9998 102.85 79.9881 116 65.307 116Z" fill="#F9D438"/>
</mask>
<g mask="url(#mask6)">
<mask id="mask7" mask-type="alpha" maskUnits="userSpaceOnUse" x="24" y="6" width="112" height="120">
<path d="M86.4263 125.912H74.2463C47.1339 125.912 24.9507 105.404 24.9507 80.3379V52.3127C24.9507 27.2469 47.1335 6.7382 74.2463 6.7382H86.4266C113.539 6.7382 135.722 27.2466 135.722 52.3127V80.3379C135.722 105.404 113.539 125.912 86.4263 125.912Z" fill="#EDB740"/>
</mask>
<g mask="url(#mask7)">
<line y1="-1.5" x2="221.162" y2="-1.5" transform="matrix(0.672073 -0.740485 0.790125 0.612946 -26.9404 85.3149)" stroke="#F4E55C" stroke-width="3"/>
<line y1="-1.5" x2="237.013" y2="-1.5" transform="matrix(-0.790125 -0.612946 0.672073 -0.740485 160.33 230.591)" stroke="#F4E55C" stroke-width="3"/>
<line y1="-1.5" x2="237.013" y2="-1.5" transform="matrix(-0.790125 -0.612946 0.672073 -0.740485 172.315 217.384)" stroke="#F4E55C" stroke-width="3"/>
<line y1="-1.5" x2="237.013" y2="-1.5" transform="matrix(-0.790125 -0.612946 0.672073 -0.740485 184.303 204.177)" stroke="#F4E55C" stroke-width="3"/>
<line y1="-1.5" x2="237.013" y2="-1.5" transform="matrix(-0.790125 -0.612946 0.672073 -0.740485 196.29 190.97)" stroke="#F4E55C" stroke-width="3"/>
<line y1="-1.5" x2="237.013" y2="-1.5" transform="matrix(-0.790125 -0.612946 0.672073 -0.740485 208.277 177.763)" stroke="#F4E55C" stroke-width="3"/>
<line y1="-1.5" x2="237.013" y2="-1.5" transform="matrix(-0.790125 -0.612946 0.672073 -0.740485 220.264 164.556)" stroke="#F4E55C" stroke-width="3"/>
<line y1="-1.5" x2="237.013" y2="-1.5" transform="matrix(-0.790125 -0.612946 0.672073 -0.740485 232.25 151.349)" stroke="#F4E55C" stroke-width="3"/>
<line y1="-1.5" x2="237.013" y2="-1.5" transform="matrix(-0.790125 -0.612946 0.672073 -0.740485 244.237 138.142)" stroke="#F4E55C" stroke-width="3"/>
<line y1="-1.5" x2="237.013" y2="-1.5" transform="matrix(-0.790125 -0.612946 0.672073 -0.740485 256.224 124.935)" stroke="#F4E55C" stroke-width="3"/>
<line y1="-1.5" x2="237.013" y2="-1.5" transform="matrix(-0.790125 -0.612946 0.672073 -0.740485 268.211 111.728)" stroke="#F4E55C" stroke-width="3"/>
<line y1="-1.5" x2="237.013" y2="-1.5" transform="matrix(-0.790125 -0.612946 0.672073 -0.740485 280.199 98.5208)" stroke="#F4E55C" stroke-width="3"/>
<line y1="-1.5" x2="221.848" y2="-1.5" transform="matrix(0.828449 -0.588696 0.646946 0.743295 -10.8604 74.1318)" stroke="#F4E55C" stroke-width="3"/>
<line y1="-1.5" x2="221.848" y2="-1.5" transform="matrix(0.828449 -0.588696 0.646946 0.743295 1.47119 88.3001)" stroke="#F4E55C" stroke-width="3"/>
<line y1="-1.5" x2="221.848" y2="-1.5" transform="matrix(0.828449 -0.588696 0.646946 0.743295 13.8037 102.469)" stroke="#F4E55C" stroke-width="3"/>
<line y1="-1.5" x2="221.848" y2="-1.5" transform="matrix(0.828449 -0.588696 0.646946 0.743295 26.1362 116.638)" stroke="#F4E55C" stroke-width="3"/>
<line y1="-1.5" x2="221.848" y2="-1.5" transform="matrix(0.828449 -0.588696 0.646946 0.743295 38.4697 130.807)" stroke="#F4E55C" stroke-width="3"/>
<line y1="-1.5" x2="221.848" y2="-1.5" transform="matrix(0.828449 -0.588696 0.646946 0.743295 50.8013 144.976)" stroke="#F4E55C" stroke-width="3"/>
<line y1="-1.5" x2="221.848" y2="-1.5" transform="matrix(0.828449 -0.588696 0.646946 0.743295 63.1338 159.144)" stroke="#F4E55C" stroke-width="3"/>
<line y1="-1.5" x2="221.848" y2="-1.5" transform="matrix(0.828449 -0.588696 0.646946 0.743295 75.4639 173.314)" stroke="#F4E55C" stroke-width="3"/>
<line y1="-1.5" x2="221.848" y2="-1.5" transform="matrix(0.828449 -0.588696 0.646946 0.743295 87.7979 187.483)" stroke="#F4E55C" stroke-width="3"/>
</g>
</g>
</g>
</svg>
