<svg width="120" height="120" viewBox="0 0 120 120" fill="none" xmlns="http://www.w3.org/2000/svg">
<path d="M47.3592 19.9525C45.9889 23.175 39.6752 26.1057 35.5076 26.6676C32.4094 27.0852 29.4665 26.333 27.2665 24.7905C27.1947 24.7417 27.1242 24.6917 27.0551 24.6403C26.4532 24.1947 25.9107 23.689 25.4418 23.1306C25.3859 23.0638 25.3303 22.9964 25.2766 22.9286C26.6477 19.7063 29.985 17.1768 34.1526 16.6149C36.4713 16.3032 39.624 16.5214 42.34 17.2495C44.5067 17.8307 46.3939 18.7355 47.3592 19.9525Z" fill="#8CC275"/>
<mask id="mask0" mask-type="alpha" maskUnits="userSpaceOnUse" x="25" y="16" width="23" height="11">
<path d="M47.3592 19.9525C45.9889 23.175 39.6752 26.1057 35.5076 26.6676C32.4094 27.0852 29.4665 26.333 27.2665 24.7905C27.1947 24.7417 27.1242 24.6917 27.0551 24.6403C26.4532 24.1947 25.9107 23.689 25.4418 23.1306C25.3859 23.0638 25.3303 22.9964 25.2766 22.9286C26.6477 19.7063 29.985 17.1768 34.1526 16.6149C36.4713 16.3032 39.624 16.5214 42.34 17.2495C44.5067 17.8307 46.3939 18.7355 47.3592 19.9525Z" fill="#8CC275"/>
</mask>
<g mask="url(#mask0)">
<path d="M49.2242 21.121C48.2345 24.3601 42.4599 27.8132 38.5083 28.7713C35.5706 29.4836 32.663 29.0542 30.3896 27.7897C30.3156 27.7499 30.2427 27.7088 30.1709 27.6662C29.5465 27.2976 28.9732 26.8651 28.4652 26.3746C28.4046 26.3159 28.3443 26.2565 28.2856 26.1967C29.2761 22.9578 32.2286 20.1888 36.1802 19.2306C38.3789 18.6984 41.4338 18.5928 44.1206 19.0217C46.2641 19.3642 48.1716 20.0462 49.2242 21.121Z" fill="#98DB7C"/>
</g>
<path d="M45.0121 9.70592C44.4084 8.91926 43.2846 8.76602 42.4954 9.36793C41.7062 9.96984 41.5555 11.097 42.1566 11.8854C42.2077 11.951 47.1754 18.5703 47.1754 28.1796V32.6041H50.7673V28.1796C50.7673 17.369 45.247 10.0133 45.0121 9.70592Z" fill="#8CC275"/>
<path d="M84.8251 61.3342C84.8251 80.1765 71.2263 95.4508 48.913 95.4508C26.5996 95.4508 13 80.1765 13 61.3342C13 42.4918 26.5996 27.2167 48.913 27.2167C71.2255 27.2167 84.8251 42.4918 84.8251 61.3342Z" fill="#FFAA5F"/>
<path d="M59.6861 88.2687C37.3728 88.2687 23.774 72.9936 23.774 54.1512C23.774 44.8186 27.102 36.3433 33.1815 30.1837C20.3796 35.5141 13 47.4561 13 61.3342C13 80.1765 26.5996 95.4508 48.913 95.4508C60.1731 95.4508 69.206 91.5532 75.3997 85.277C70.8202 87.1841 65.5656 88.2687 59.6861 88.2687Z" fill="#FF8C5A"/>
<path d="M40.6026 88.1307C39.3485 88.7115 38.8649 90.225 39.5349 91.4272C48.7149 107.895 69.3033 114.721 86.7417 106.646C104.18 98.5701 112.148 78.5192 105.347 60.9503C104.85 59.6677 103.371 59.0628 102.118 59.6436L40.6026 88.1307Z" fill="#FFAA5F"/>
<path d="M40.6026 88.1307C39.3485 88.7115 38.8649 90.225 39.5349 91.4272C48.7149 107.895 69.3033 114.721 86.7417 106.646C104.18 98.5701 112.148 78.5192 105.347 60.9503C104.85 59.6677 103.371 59.0628 102.118 59.6436L40.6026 88.1307Z" fill="#FF8C5A"/>
<path d="M43.8446 86.6126C42.6497 87.1627 42.1889 88.5962 42.8273 89.7348C51.5744 105.331 71.1921 111.797 87.8083 104.149C104.425 96.5001 112.017 77.5094 105.536 60.8695C105.063 59.6547 103.654 59.0818 102.459 59.6319L43.8446 86.6126Z" fill="#FFAA5F"/>
<path d="M46.8615 87.4026C49.7687 92.7965 54.1364 96.9757 59.2443 99.6822C60.1124 100.142 61.1893 99.7385 61.5258 98.8203L68.9109 78.6652C69.4537 77.1844 67.9228 75.7911 66.485 76.457L47.606 85.2017C46.7701 85.5888 46.4263 86.5949 46.8615 87.4026ZM83.2587 99.7247L74.9948 82.121C74.5402 81.1526 73.1337 81.2136 72.766 82.2177L66.0793 100.467C65.7429 101.385 66.3068 102.382 67.2695 102.583C72.1317 103.603 77.2779 103.443 82.254 101.938C83.1971 101.652 83.6755 100.612 83.2587 99.7247ZM90.0032 98.3481C94.3629 95.5292 97.7941 91.7164 100.133 87.3613C100.596 86.499 100.19 85.4294 99.2657 85.095L80.8937 78.4531C79.8828 78.0876 78.9319 79.1186 79.3863 80.0871L87.6502 97.6907C88.0672 98.5782 89.1769 98.8825 90.0032 98.3481ZM80.6322 73.2362L100.923 80.5719C101.848 80.9061 102.851 80.3462 103.054 79.3899C104.25 73.7632 103.835 67.7537 101.544 62.0743C101.201 61.224 100.204 60.839 99.3677 61.2261L80.4887 69.9707C79.0506 70.6368 79.1412 72.6973 80.6322 73.2362Z" fill="#F6C17B"/>
</svg>
