<svg width="2318" height="520" viewBox="0 0 2318 520" fill="none" xmlns="http://www.w3.org/2000/svg">
<path class="juice_wave" d="M0 335V237.421C0 237.421 64 261.318 94 205.559C124 149.799 156 129.885 204 129.885C252 129.885 261.624 203.975 334 181.662C377.274 168.321 388 129.885 440 129.885C492 129.885 510 209.541 562 195.602C614 181.662 606 139.843 654 139.843C702 139.843 706.318 175.747 764 181.662C828.617 188.288 867.087 153.352 932 155.774C1003.25 158.433 1022 205.559 1088 205.559C1154 205.559 1152 147.469 1224 139.843C1296 132.216 1283.01 190 1370 181.662C1444.4 174.531 1451.35 126.295 1526 129.885C1581.54 132.557 1606.44 170.07 1662 167.722C1719.6 165.287 1762.98 122.459 1820 113.954C1892.89 103.082 1898.64 188.543 1972 195.602C2055.1 203.597 2077.85 125.035 2160 139.843C2243.45 154.883 2264 237.421 2318 237.421V335H0Z" fill="none"/>
</svg>
