<svg width="2318" height="223" viewBox="0 0 2318 223" fill="none" xmlns="http://www.w3.org/2000/svg">
<path d="M0 223V125C0 125 64 149 94 92.9998C124 36.9998 156 16.9998 204 16.9998C252 16.9998 261.624 91.4091 334 68.9998C377.274 55.6011 388 16.9998 440 16.9998C492 16.9997 510 96.9996 562 82.9998C614 68.9999 606 27 654 27C702 27 706.318 63.0589 764 68.9998C828.617 75.6548 867.087 40.5673 932 43C1003.25 45.6702 1022 92.9998 1088 92.9998C1154 92.9998 1152 34.6597 1224 27C1296 19.3403 1283.01 77.3742 1370 68.9999C1444.4 61.8381 1451.35 13.3936 1526 16.9998C1581.54 19.6828 1606.44 57.3582 1662 54.9998C1719.6 52.5545 1762.98 9.54167 1820 1.00004C1892.89 -9.91938 1898.64 75.911 1972 82.9996C2055.1 91.0292 2077.85 12.1289 2160 27C2243.45 42.1055 2264 125 2318 125V223H0Z" fill="#C4C4C4"/>
</svg>
