<svg width="242" height="520" viewBox="0 0 242 520" fill="none" xmlns="http://www.w3.org/2000/svg">
<path d="M56.3105 325.931H185.69V381.379H56.3105V325.931Z" fill="#AEBCCA"/>
<path d="M66 326H186V381H66V326Z" fill="#C7CCD1"/>
<path d="M0.862305 427.586V501.517C0.862305 511.725 9.1368 520 19.3451 520H222.655C232.864 520 241.138 511.725 241.138 501.517V427.586C241.138 396.963 216.313 372.138 185.69 372.138H56.3106C25.687 372.138 0.862305 396.963 0.862305 427.586Z" fill="#FF8C5A"/>
<path d="M14 427.5V501.5C14 511.718 21.8173 520 31.4615 520H223.538C233.183 520 241 511.718 241 501.5V427.5C241 396.848 217.547 372 188.615 372H66.3846C37.453 372 14 396.848 14 427.5Z" fill="#FFAA5F"/>
<path d="M194.931 20.9655H47.069C26.6537 20.9655 10.1035 37.5157 10.1035 57.931L36.1642 318.538C37.1138 327.983 45.0625 335.172 54.5545 335.172H187.446C196.938 335.172 204.886 327.983 205.836 318.538L231.897 57.931C231.897 37.5157 215.346 20.9655 194.931 20.9655Z" fill="#EAEAEA"/>
<path d="M197.167 21H57.8333C38.5955 21 23 37.5393 23 57.9412L47.5575 318.376C48.4523 327.815 55.9425 335 64.8871 335H190.113C199.057 335 206.548 327.815 207.442 318.376L232 57.9412C232 37.5393 216.404 21 197.167 21Z" fill="#F2F2F2"/>
<path d="M46.0879 225.962C50.0188 223.342 59.4452 224.513 64.6672 226.812C68.5492 228.522 71.3993 231.422 72.8156 234.68C72.8629 234.785 72.9078 234.89 72.9501 234.996C73.3205 235.913 73.5783 236.856 73.7129 237.806C73.7287 237.919 73.7438 238.033 73.7565 238.146C69.8249 240.766 64.1278 241.237 58.9057 238.938C56.001 237.657 52.5195 235.203 49.9139 232.488C47.8355 230.322 46.3157 227.992 46.0879 225.962Z" fill="#8CC275"/>
<mask id="mask0" mask-type="alpha" maskUnits="userSpaceOnUse" x="46" y="224" width="28" height="17">
<path d="M46.0879 225.962C50.0188 223.342 59.4452 224.513 64.6672 226.812C68.5492 228.522 71.3993 231.422 72.8156 234.68C72.8629 234.785 72.9078 234.89 72.9501 234.996C73.3205 235.913 73.5783 236.856 73.7129 237.806C73.7287 237.919 73.7438 238.033 73.7565 238.146C69.8249 240.766 64.1278 241.237 58.9057 238.938C56.001 237.657 52.5195 235.203 49.9139 232.488C47.8355 230.322 46.3157 227.992 46.0879 225.962Z" fill="#8CC275"/>
</mask>
<g mask="url(#mask0)">
<path d="M44.786 223.355C48.2894 220.449 57.474 220.662 62.7355 222.369C66.6468 223.638 69.6913 226.155 71.395 229.156C71.4515 229.252 71.5057 229.349 71.5575 229.446C72.0099 230.294 72.3568 231.177 72.5859 232.079C72.613 232.187 72.6395 232.295 72.6636 232.403C69.1594 235.308 63.7322 236.315 58.4707 234.608C55.544 233.657 51.9394 231.631 49.1495 229.269C46.9239 227.385 45.2182 225.288 44.786 223.355Z" fill="#98DB7C"/>
</g>
<path d="M67.9339 214.677C72.1409 216.865 75.3226 225.486 75.5569 231.009C75.7308 235.115 74.3341 238.875 71.9573 241.565C71.8819 241.653 71.8049 241.74 71.7262 241.824C71.0439 242.557 70.2874 243.205 69.4687 243.75C69.3708 243.815 69.272 243.88 69.173 243.942C64.9665 241.753 61.9517 237.076 61.7175 231.553C61.5885 228.48 62.2858 224.381 63.621 220.915C64.6865 218.15 66.1566 215.791 67.9339 214.677Z" fill="#8CC275"/>
<mask id="mask1" mask-type="alpha" maskUnits="userSpaceOnUse" x="61" y="214" width="15" height="30">
<path d="M67.9339 214.677C72.1409 216.865 75.3226 225.486 75.5569 231.009C75.7308 235.115 74.3341 238.875 71.9573 241.565C71.8819 241.653 71.8049 241.74 71.7262 241.824C71.0439 242.557 70.2874 243.205 69.4687 243.75C69.3708 243.815 69.272 243.88 69.173 243.942C64.9665 241.753 61.9517 237.076 61.7175 231.553C61.5885 228.48 62.2858 224.381 63.621 220.915C64.6865 218.15 66.1566 215.791 67.9339 214.677Z" fill="#8CC275"/>
</mask>
<g mask="url(#mask1)">
<path d="M69.7596 212.379C74.0375 214.071 77.998 222.051 78.7984 227.34C79.3933 231.272 78.4399 235.025 76.4318 237.845C76.3683 237.937 76.3031 238.028 76.2361 238.116C75.6556 238.889 74.9948 239.586 74.2633 240.191C74.1758 240.263 74.0875 240.335 73.9986 240.404C69.7211 238.711 66.3319 234.509 65.5314 229.22C65.0874 226.277 65.3321 222.266 66.2568 218.802C66.9948 216.039 68.1646 213.625 69.7596 212.379Z" fill="#98DB7C"/>
</g>
<path d="M89.963 225.779C89.9387 230.382 83.5351 237.144 78.5836 239.943C74.9026 242.024 70.7994 242.608 67.2147 241.856C67.0986 241.833 66.9833 241.808 66.8692 241.781C65.8759 241.547 64.9259 241.209 64.0405 240.771C63.9349 240.718 63.8293 240.665 63.7258 240.61C63.7512 236.007 66.6185 231.244 71.57 228.445C74.3254 226.889 78.4107 225.551 82.2153 225.053C85.2506 224.657 88.1049 224.795 89.963 225.779Z" fill="#8CC275"/>
<mask id="mask2" mask-type="alpha" maskUnits="userSpaceOnUse" x="63" y="224" width="27" height="19">
<path d="M89.963 225.779C89.9387 230.382 83.5351 237.144 78.5836 239.943C74.9026 242.024 70.7994 242.608 67.2147 241.856C67.0986 241.833 66.9833 241.808 66.8692 241.781C65.8759 241.547 64.9259 241.209 64.0405 240.771C63.9349 240.718 63.8293 240.665 63.7258 240.61C63.7512 236.007 66.6185 231.244 71.57 228.445C74.3254 226.889 78.4107 225.551 82.2153 225.053C85.2506 224.657 88.1049 224.795 89.963 225.779Z" fill="#8CC275"/>
</mask>
<g mask="url(#mask2)">
<path d="M92.9281 226.248C93.3918 230.678 87.9429 237.798 83.4725 240.968C80.1491 243.325 76.261 244.282 72.7305 243.904C72.6163 243.894 72.5028 243.881 72.39 243.866C71.409 243.736 70.4587 243.503 69.5601 243.167C69.4528 243.127 69.3455 243.085 69.24 243.042C68.7774 238.613 71.0335 233.756 75.5039 230.586C77.9917 228.823 81.7829 227.143 85.3928 226.297C88.2728 225.623 91.0351 225.48 92.9281 226.248Z" fill="#98DB7C"/>
</g>
<path d="M105.504 225.171C110.254 225.693 116.542 232.554 118.896 237.596C120.646 241.344 120.804 245.334 119.639 248.683C119.603 248.792 119.565 248.899 119.524 249.006C119.175 249.931 118.723 250.803 118.174 251.603C118.109 251.699 118.042 251.794 117.974 251.887C113.223 251.363 108.616 248.103 106.262 243.061C104.954 240.256 104.015 236.201 103.914 232.506C103.834 229.558 104.285 226.842 105.504 225.171Z" fill="#8CC275"/>
<mask id="mask3" mask-type="alpha" maskUnits="userSpaceOnUse" x="103" y="225" width="18" height="27">
<path d="M105.504 225.171C110.254 225.693 116.542 232.554 118.896 237.596C120.646 241.344 120.804 245.334 119.639 248.683C119.603 248.792 119.565 248.899 119.524 249.006C119.175 249.931 118.723 250.803 118.174 251.603C118.109 251.699 118.042 251.794 117.974 251.887C113.223 251.363 108.616 248.103 106.262 243.061C104.954 240.256 104.015 236.201 103.914 232.506C103.834 229.558 104.285 226.842 105.504 225.171Z" fill="#8CC275"/>
</mask>
<g mask="url(#mask3)">
<path d="M106.309 222.384C110.934 222.42 117.697 228.407 120.485 233.029C122.558 236.465 123.125 240.289 122.353 243.627C122.329 243.735 122.304 243.842 122.276 243.949C122.036 244.873 121.692 245.757 121.247 246.581C121.194 246.679 121.14 246.777 121.084 246.874C116.459 246.836 111.688 244.15 108.899 239.529C107.349 236.957 106.025 233.146 105.543 229.6C105.159 226.771 105.311 224.112 106.309 222.384Z" fill="#98DB7C"/>
</g>
<path d="M129.661 230.541C131.328 234.855 127.819 243.358 124.214 247.661C121.534 250.86 117.91 252.801 114.281 253.317C114.164 253.335 114.047 253.351 113.93 253.365C112.915 253.484 111.902 253.491 110.913 253.382C110.795 253.369 110.676 253.354 110.559 253.338C108.894 249.024 109.828 243.593 113.433 239.29C115.44 236.897 118.77 234.256 122.147 232.497C124.841 231.093 127.562 230.251 129.661 230.541Z" fill="#8CC275"/>
<mask id="mask4" mask-type="alpha" maskUnits="userSpaceOnUse" x="109" y="230" width="22" height="24">
<path d="M129.661 230.541C131.328 234.855 127.819 243.358 124.214 247.661C121.534 250.86 117.91 252.801 114.281 253.317C114.164 253.335 114.047 253.351 113.93 253.365C112.915 253.484 111.902 253.491 110.913 253.382C110.795 253.369 110.676 253.354 110.559 253.338C108.894 249.024 109.828 243.593 113.433 239.29C115.44 236.897 118.77 234.256 122.147 232.497C124.841 231.093 127.562 230.251 129.661 230.541Z" fill="#8CC275"/>
</mask>
<g mask="url(#mask4)">
<path d="M132.607 229.971C134.667 233.957 132.183 242.472 129.164 246.958C126.92 250.292 123.634 252.51 120.192 253.358C120.082 253.387 119.971 253.413 119.86 253.437C118.895 253.65 117.92 253.755 116.956 253.746C116.841 253.745 116.725 253.743 116.611 253.739C114.552 249.752 114.88 244.441 117.899 239.955C119.579 237.46 122.509 234.598 125.576 232.579C128.023 230.969 130.555 229.896 132.607 229.971Z" fill="#98DB7C"/>
</g>
<path d="M138.63 252.866C135.461 256.313 126.016 257.336 120.375 256.301C116.182 255.531 112.696 253.367 110.515 250.527C110.443 250.436 110.373 250.345 110.306 250.252C109.719 249.446 109.235 248.589 108.87 247.698C108.826 247.591 108.784 247.484 108.743 247.377C111.913 243.931 117.33 242.168 122.971 243.203C126.109 243.781 130.097 245.366 133.3 247.405C135.854 249.033 137.907 250.947 138.63 252.866Z" fill="#8CC275"/>
<mask id="mask5" mask-type="alpha" maskUnits="userSpaceOnUse" x="108" y="242" width="31" height="15">
<path d="M138.63 252.866C135.461 256.313 126.016 257.336 120.375 256.301C116.182 255.531 112.696 253.367 110.515 250.527C110.443 250.436 110.373 250.345 110.306 250.252C109.719 249.446 109.235 248.589 108.87 247.698C108.826 247.591 108.784 247.484 108.743 247.377C111.913 243.931 117.33 242.168 122.971 243.203C126.109 243.781 130.097 245.366 133.3 247.405C135.854 249.033 137.907 250.947 138.63 252.866Z" fill="#8CC275"/>
</mask>
<g mask="url(#mask5)">
<path d="M140.539 255.1C137.856 258.726 128.883 260.625 123.351 260.173C119.238 259.837 115.658 258.091 113.261 255.567C113.182 255.487 113.106 255.405 113.031 255.322C112.382 254.602 111.827 253.824 111.381 253.001C111.328 252.903 111.276 252.804 111.226 252.705C113.91 249.079 118.932 246.857 124.465 247.309C127.542 247.562 131.544 248.702 134.838 250.357C137.466 251.676 139.641 253.322 140.539 255.1Z" fill="#98DB7C"/>
</g>
<path d="M46.0873 253.497C46.0873 241.239 56.4096 231.303 69.1428 231.303C81.8759 231.303 92.1982 241.239 92.1982 253.497C92.1982 257.434 91.0706 260.845 89.2678 264.331C86.7353 269.226 81.2289 278.145 72.7215 283.046C70.5233 284.312 67.7762 284.318 65.575 283.057C60.4904 280.143 56.3622 275.734 53.0786 271.048C52.2187 269.821 51.4092 268.561 50.6486 267.274C48.1053 262.972 46.0873 258.554 46.0873 253.497V253.497Z" fill="#E94444"/>
<path d="M46.0888 253.497C46.0888 258.553 48.1051 262.972 50.6501 267.273C51.409 268.56 52.2189 269.821 53.0799 271.048C56.363 275.733 60.4919 280.143 65.5763 283.058C67.7077 284.279 70.3491 284.312 72.5107 283.163C71.4649 283.085 70.4322 282.778 69.4976 282.242C64.4133 279.328 60.2844 274.919 57.0012 270.234C56.1403 269.007 55.3323 267.746 54.5713 266.459C52.0282 262.157 50.01 257.739 50.01 252.683C50.01 242.713 56.8387 234.278 66.2389 231.478C54.8752 232.853 46.0888 242.186 46.0888 253.497V253.497Z" fill="#D83131"/>
<path d="M62.9016 263.334C63.6595 263.334 64.2739 262.742 64.2739 262.013V259.58C64.2739 258.851 63.6595 258.259 62.9016 258.259C62.1438 258.259 61.5294 258.851 61.5294 259.58V262.013C61.5294 262.742 62.1436 263.334 62.9016 263.334Z" fill="#FFC261"/>
<path d="M75.3841 263.334C76.1419 263.334 76.7563 262.742 76.7563 262.013V259.58C76.7563 258.851 76.1419 258.259 75.3841 258.259C74.6262 258.259 74.0118 258.851 74.0118 259.58V262.013C74.0118 262.742 74.6262 263.334 75.3841 263.334Z" fill="#FFC261"/>
<path d="M69.1429 253.891C69.9007 253.891 70.5151 253.3 70.5151 252.57V250.138C70.5151 249.408 69.9007 248.817 69.1429 248.817C68.385 248.817 67.7706 249.408 67.7706 250.138V252.57C67.7706 253.3 68.385 253.891 69.1429 253.891Z" fill="#FFC261"/>
<path d="M55.8123 253.891C56.5702 253.891 57.1846 253.3 57.1846 252.57V250.138C57.1846 249.408 56.5702 248.817 55.8123 248.817C55.0544 248.817 54.44 249.408 54.44 250.138V252.57C54.44 253.3 55.0544 253.891 55.8123 253.891Z" fill="#FFC261"/>
<path d="M69.1429 271.534C69.9007 271.534 70.5151 270.942 70.5151 270.213V267.78C70.5151 267.051 69.9007 266.459 69.1429 266.459C68.385 266.459 67.7706 267.051 67.7706 267.78V270.213C67.7706 270.942 68.385 271.534 69.1429 271.534Z" fill="#FFC261"/>
<path d="M88.701 244.046C97.7047 235.379 112.303 235.379 121.306 244.046C130.31 252.713 130.31 266.766 121.306 275.433C118.414 278.217 115.111 279.862 111.276 281.099C105.89 282.837 95.4446 285.396 85.8293 283.07C83.3449 282.469 81.3974 280.604 80.7676 278.213C79.3126 272.692 79.6326 266.764 80.7524 261.215C81.0457 259.762 81.399 258.32 81.8061 256.893C83.1678 252.12 84.9865 247.622 88.701 244.046V244.046Z" fill="#E94444"/>
<path d="M80.7673 278.213C81.3978 280.602 83.3442 282.467 85.8288 283.069C87.4033 283.45 88.9968 283.699 90.5902 283.843C90.3222 283.787 90.0541 283.727 89.7859 283.661C87.3013 283.06 85.3549 281.195 84.7244 278.805C83.2688 273.284 83.5898 267.355 84.7092 261.807C85.0018 260.353 85.3549 258.912 85.7627 257.485C87.1239 252.71 88.9439 248.214 92.6575 244.637C97.5585 239.919 104.117 237.769 110.529 238.187C102.954 236.395 94.6191 238.347 88.7003 244.045C84.9868 247.62 83.1667 252.118 81.8056 256.892C81.3978 258.319 81.0448 259.76 80.7521 261.214C79.6326 266.763 79.3117 272.691 80.7673 278.213Z" fill="#D83131"/>
<path d="M94.3342 262.833C94.6853 262.833 95.0366 262.704 95.3045 262.446L97.0912 260.726C97.6271 260.21 97.6271 259.374 97.0912 258.858C96.5553 258.342 95.6864 258.342 95.1506 258.858L93.3639 260.578C92.828 261.094 92.828 261.93 93.3639 262.446C93.6318 262.704 93.9829 262.833 94.3342 262.833V262.833Z" fill="#FFC261"/>
<path d="M103.161 271.33C103.512 271.33 103.863 271.201 104.131 270.943L105.918 269.223C106.454 268.707 106.454 267.87 105.918 267.355C105.382 266.839 104.513 266.839 103.977 267.355L102.191 269.075C101.655 269.591 101.655 270.427 102.191 270.943C102.458 271.201 102.81 271.33 103.161 271.33V271.33Z" fill="#FFC261"/>
<path d="M105.683 260.405C106.034 260.405 106.386 260.276 106.654 260.018L108.44 258.298C108.976 257.782 108.976 256.945 108.44 256.429C107.904 255.914 107.035 255.914 106.5 256.429L104.713 258.149C104.177 258.665 104.177 259.502 104.713 260.018C104.981 260.275 105.332 260.405 105.683 260.405V260.405Z" fill="#FFC261"/>
<path d="M96.2571 251.33C96.6082 251.33 96.9595 251.201 97.2274 250.943L99.0141 249.223C99.55 248.707 99.55 247.871 99.0141 247.355C98.4782 246.839 97.6092 246.839 97.0735 247.355L95.2868 249.075C94.7508 249.591 94.7508 250.427 95.2868 250.943C95.5546 251.201 95.9059 251.33 96.2571 251.33V251.33Z" fill="#FFC261"/>
<path d="M115.11 269.479C115.461 269.479 115.813 269.35 116.08 269.092L117.867 267.372C118.403 266.856 118.403 266.02 117.867 265.504C117.331 264.988 116.462 264.988 115.927 265.504L114.14 267.224C113.604 267.74 113.604 268.576 114.14 269.092C114.408 269.35 114.759 269.479 115.11 269.479Z" fill="#FFC261"/>
<path d="M92.7243 272.88C93.0755 272.88 93.4268 272.751 93.6946 272.493L95.4814 270.772C96.0173 270.257 96.0173 269.42 95.4814 268.904C94.9454 268.388 94.0765 268.388 93.5408 268.904L91.7541 270.624C91.2181 271.14 91.2181 271.977 91.7541 272.493C92.0219 272.75 92.3732 272.88 92.7243 272.88Z" fill="#FFC261"/>
<path d="M121 483C141.987 483 159 466.435 159 446C159 425.565 141.987 409 121 409C100.013 409 83 425.565 83 446C83 466.435 100.013 483 121 483Z" fill="#634A84"/>
<mask id="mask6" mask-type="alpha" maskUnits="userSpaceOnUse" x="83" y="409" width="76" height="74">
<path d="M121 483C141.987 483 159 466.435 159 446C159 425.565 141.987 409 121 409C100.013 409 83 425.565 83 446C83 466.435 100.013 483 121 483Z" fill="#427C9D"/>
</mask>
<g mask="url(#mask6)">
<path d="M128 483C148.987 483 166 466.435 166 446C166 425.565 148.987 409 128 409C107.013 409 90 425.565 90 446C90 466.435 107.013 483 128 483Z" fill="#6F5690"/>
</g>
<path d="M121.507 455.31C116.335 455.31 112.142 451.173 112.142 446.069V436.828C112.142 431.724 116.335 427.586 121.507 427.586C126.678 427.586 130.871 431.724 130.871 436.828V446.069C130.871 451.173 126.678 455.31 121.507 455.31Z" fill="#634A84"/>
<path d="M102.5 0H139.5C149.718 0 158 5.37225 158 12V30H84V12C84 5.37225 92.2822 0 102.5 0Z" fill="#634A84"/>
<path d="M47.069 20.9655H194.931C215.346 20.9655 231.897 37.5157 231.897 57.931H10.1035C10.1035 37.5157 26.6537 20.9655 47.069 20.9655Z" fill="#634A84"/>
<path d="M57.8333 21H197.167C216.404 21 232 37.5656 232 58H23C23 37.5656 38.5955 21 57.8333 21Z" fill="#6F5690"/>
<path d="M121.758 177.739C98.5282 149.746 57.1032 145.967 29.2328 169.299C27.7097 170.575 26.2442 171.918 24.842 173.327L23 175.177L37.2109 318.349C38.1572 327.803 46.0789 335 55.5386 335H187.977C197.437 335 205.359 327.803 206.305 318.349L220 180.829L218.674 182.161C193.016 207.926 151.421 207.922 125.768 182.151C124.365 180.741 123.028 179.27 121.758 177.739Z" fill="#FFDB8B"/>
</svg>
