<svg width="242" height="520" viewBox="0 0 242 520" fill="none" xmlns="http://www.w3.org/2000/svg">
<path d="M56.3105 325.931H185.69V381.379H56.3105V325.931Z" fill="#AEBCCA"/>
<path d="M66 326H186V381H66V326Z" fill="#C7CCD1"/>
<path d="M0.862305 427.586V501.517C0.862305 511.725 9.1368 520 19.3451 520H222.655C232.864 520 241.138 511.725 241.138 501.517V427.586C241.138 396.963 216.313 372.138 185.69 372.138H56.3106C25.687 372.138 0.862305 396.963 0.862305 427.586Z" fill="#FF8C5A"/>
<path d="M14 427.5V501.5C14 511.718 21.8173 520 31.4615 520H223.538C233.183 520 241 511.718 241 501.5V427.5C241 396.848 217.547 372 188.615 372H66.3846C37.453 372 14 396.848 14 427.5Z" fill="#FFAA5F"/>
<path d="M194.931 20.9655H47.069C26.6537 20.9655 10.1035 37.5157 10.1035 57.931L36.1642 318.538C37.1138 327.983 45.0625 335.172 54.5545 335.172H187.446C196.938 335.172 204.886 327.983 205.836 318.538L231.897 57.931C231.897 37.5157 215.346 20.9655 194.931 20.9655Z" fill="#EAEAEA"/>
<path d="M197.167 21H57.8333C38.5955 21 23 37.5393 23 57.9412L47.5575 318.376C48.4523 327.815 55.9425 335 64.8871 335H190.113C199.057 335 206.548 327.815 207.442 318.376L232 57.9412C232 37.5393 216.404 21 197.167 21Z" fill="#F2F2F2"/>
<path d="M121 483C141.987 483 159 466.435 159 446C159 425.565 141.987 409 121 409C100.013 409 83 425.565 83 446C83 466.435 100.013 483 121 483Z" fill="#634A84"/>
<mask id="mask0" mask-type="alpha" maskUnits="userSpaceOnUse" x="83" y="409" width="76" height="74">
<path d="M121 483C141.987 483 159 466.435 159 446C159 425.565 141.987 409 121 409C100.013 409 83 425.565 83 446C83 466.435 100.013 483 121 483Z" fill="#427C9D"/>
</mask>
<g mask="url(#mask0)">
<path d="M128 483C148.987 483 166 466.435 166 446C166 425.565 148.987 409 128 409C107.013 409 90 425.565 90 446C90 466.435 107.013 483 128 483Z" fill="#6F5690"/>
</g>
<path d="M121.507 455.31C116.335 455.31 112.142 451.173 112.142 446.069V436.828C112.142 431.724 116.335 427.586 121.507 427.586C126.678 427.586 130.871 431.724 130.871 436.828V446.069C130.871 451.173 126.678 455.31 121.507 455.31Z" fill="#634A84"/>
<path d="M102.5 0H139.5C149.718 0 158 5.37225 158 12V30H84V12C84 5.37225 92.2822 0 102.5 0Z" fill="#634A84"/>
<path d="M47.069 20.9655H194.931C215.346 20.9655 231.897 37.5157 231.897 57.931H10.1035C10.1035 37.5157 26.6537 20.9655 47.069 20.9655Z" fill="#634A84"/>
<path d="M57.8333 21H197.167C216.404 21 232 37.5656 232 58H23C23 37.5656 38.5955 21 57.8333 21Z" fill="#6F5690"/>
</svg>
